<svg width="40" height="40" viewBox="0 0 40 40" fill="none" xmlns="http://www.w3.org/2000/svg">
<mask id="mask0_146_117" style="mask-type:alpha" maskUnits="userSpaceOnUse" x="0" y="0" width="40" height="40">
<rect width="40" height="40" fill="#D9D9D9"/>
</mask>
<g mask="url(#mask0_146_117)">
<mask id="mask1_146_117" style="mask-type:alpha" maskUnits="userSpaceOnUse" x="1" y="1" width="38" height="38">
<circle cx="20" cy="20" r="19" fill="#D9D9D9"/>
</mask>
<g mask="url(#mask1_146_117)">
<circle cx="20" cy="20" r="19" fill="#FEFEFF"/>
<mask id="mask2_146_117" style="mask-type:alpha" maskUnits="userSpaceOnUse" x="5" y="8" width="16" height="22">
<path d="M5 8.73706H20.479V29.2629H5V8.73706Z" fill="white"/>
</mask>
<g mask="url(#mask2_146_117)">
<path fill-rule="evenodd" clip-rule="evenodd" d="M15.9781 23.6227C15.6481 24.2009 15.2116 24.6425 14.6446 24.9739C14.0821 25.3028 13.4619 25.461 12.7507 25.461C12.0374 25.461 11.4128 25.3007 10.8413 24.9694C10.2675 24.638 9.82904 24.1986 9.50123 23.6227C9.16883 23.0425 9.0094 22.4015 9.0094 21.6631C9.0094 20.9248 9.16883 20.2839 9.50123 19.7015C9.82685 19.1298 10.2631 18.697 10.8346 18.3721C11.4084 18.0453 12.0352 17.887 12.7507 17.887C13.7341 17.887 14.5428 18.1795 15.2227 18.7772C15.9007 19.3725 16.2925 20.1172 16.4255 21.0569C16.4321 21.1371 16.4432 21.2151 16.4631 21.2929C16.4656 21.3579 16.4699 21.4727 16.4699 21.6631C16.4699 22.4015 16.3102 23.0425 15.9781 23.6227ZM19.9232 9.33238C19.5444 8.9427 19.0393 8.73706 18.461 8.73706C17.8964 8.73706 17.3936 8.93628 17.0081 9.31293C16.6249 9.68979 16.4233 10.1791 16.4233 10.7312V15.1308C16.2549 15.0291 16.0843 14.9359 15.9072 14.8472C14.8927 14.3427 13.7674 14.0873 12.5602 14.0873C11.1536 14.0873 9.85791 14.425 8.70827 15.0919C7.56301 15.7565 6.64802 16.6789 5.99021 17.8308C5.3324 18.9783 5 20.2688 5 21.6631C5 23.0618 5.34356 24.3589 6.01689 25.5151C6.69701 26.6778 7.63824 27.6022 8.81674 28.2649C9.99524 28.9273 11.3174 29.2629 12.7507 29.2629C14.1837 29.2629 15.5064 28.9273 16.6847 28.2649C17.7392 27.6739 18.603 26.8727 19.2586 25.8766C18.5853 24.6101 18.2441 23.2026 18.2441 21.6871C18.2441 20.0674 18.6406 18.5671 19.427 17.2225C19.7303 16.7007 20.0826 16.2221 20.4791 15.7826V10.7312C20.4791 10.19 20.2864 9.70497 19.9232 9.33238Z" fill="#173753"/>
</g>
<path fill-rule="evenodd" clip-rule="evenodd" d="M29.1498 24.9803C28.5849 25.3043 27.9636 25.4619 27.25 25.4619C26.5345 25.4619 25.9071 25.3035 25.3328 24.9777C24.7625 24.6539 24.3262 24.2184 23.9993 23.6466C23.6677 23.0661 23.5066 22.425 23.5066 21.6867C23.5066 20.9479 23.6677 20.3071 23.999 19.7273C24.328 19.1521 24.7668 18.7109 25.3398 18.3791C25.9123 18.0485 26.5374 17.8877 27.25 17.8877C27.9608 17.8877 28.5797 18.0476 29.1419 18.3764C29.7109 18.709 30.1479 19.1508 30.4766 19.7258C30.8085 20.3086 30.9699 20.95 30.9699 21.6867C30.9699 22.4229 30.8083 23.0646 30.4774 23.6462C30.1496 24.2193 29.7153 24.6556 29.1498 24.9803ZM33.9827 17.8336C33.3055 16.6729 32.3641 15.7478 31.184 15.0841L31.1833 15.0836C30.0066 14.4225 28.6833 14.0873 27.25 14.0873C25.8167 14.0873 24.4935 14.4225 23.3163 15.0841C22.1361 15.7478 21.1946 16.6729 20.518 17.8326C19.8425 18.9877 19.5 20.2844 19.5 21.6867C19.5 23.0844 19.8328 24.3745 20.4887 25.5189C21.1476 26.6724 22.0628 27.5942 23.2081 28.2581C24.356 28.9246 25.6515 29.2623 27.0587 29.2623C28.2658 29.2623 29.3914 29.0065 30.4046 28.502C30.6583 28.3757 30.9017 28.2369 31.1341 28.086C31.2328 28.2767 31.3646 28.4498 31.5284 28.6016C31.9105 28.9575 32.406 29.1456 32.9613 29.1456C33.5272 29.1456 34.0293 28.9475 34.4149 28.5706C34.7978 28.1948 35.0003 27.7121 35.0003 27.175V21.6867C35.0003 20.2874 34.6578 18.991 33.9827 17.8336Z" fill="#0064FF"/>
</g>
</g>
</svg>
